<svg  aria-hidden="true" version="1.1" xmlns="http://www.w3.org/2000/svg" xmlns:xlink="http://www.w3.org/1999/xlink">
<defs>
<symbol id="menu" viewBox="0 0 39 32">
<path d="M0 16c0-0.982 0.796-1.778 1.778-1.778h35.556c0.982 0 1.778 0.796 1.778 1.778s-0.796 1.778-1.778 1.778h-35.556c-0.982 0-1.778-0.796-1.778-1.778z"></path>
<path d="M0 1.778c0-0.982 0.796-1.778 1.778-1.778h35.556c0.982 0 1.778 0.796 1.778 1.778s-0.796 1.778-1.778 1.778h-35.556c-0.982 0-1.778-0.796-1.778-1.778z"></path>
<path d="M0 30.222c0-0.982 0.796-1.778 1.778-1.778h35.556c0.982 0 1.778 0.796 1.778 1.778s-0.796 1.778-1.778 1.778h-35.556c-0.982 0-1.778-0.796-1.778-1.778z"></path>
</symbol>
<symbol id="bars" viewBox="0 0 35 32">
<path d="M33.372 2.099l-0.737 5.714c-1.802-0.123-3.195 0.205-4.178 0.983s-1.638 1.864-1.966 3.256c-0.328 1.393-0.389 2.97-0.184 4.731h7.066v14.807h-13.578v-16.036c0-4.833 1.147-8.479 3.441-10.936 2.335-2.499 5.714-3.338 10.138-2.519zM14.449 2.099l-0.737 5.714c-1.802-0.123-3.195 0.205-4.178 0.983s-1.638 1.864-1.966 3.256c-0.328 1.393-0.389 2.97-0.184 4.731h7.066v14.807h-13.578v-16.036c0-4.833 1.147-8.479 3.441-10.936 2.335-2.499 5.714-3.338 10.138-2.519z"></path>
</symbol>
<symbol id="logo" viewBox="0 0 199 32">
<path d="M0.235 31.333v-29.867h5.461v12.416h13.397v-12.416h5.461v29.867h-5.461v-13.013h-13.397v13.013h-5.461zM44.354 31.845c-2.987 0-5.604-0.654-7.851-1.963-2.219-1.308-3.968-3.115-5.248-5.419-1.252-2.332-1.877-5.020-1.877-8.064s0.626-5.717 1.877-8.021c1.28-2.332 3.029-4.153 5.248-5.461 2.247-1.308 4.864-1.963 7.851-1.963 2.958 0 5.561 0.654 7.808 1.963s3.996 3.129 5.248 5.461c1.251 2.304 1.877 4.978 1.877 8.021s-0.626 5.732-1.877 8.064c-1.252 2.304-3.001 4.11-5.248 5.419s-4.85 1.963-7.808 1.963zM44.354 26.939c2.844 0 5.106-0.939 6.784-2.816 1.707-1.877 2.56-4.452 2.56-7.723s-0.853-5.845-2.56-7.723c-1.678-1.877-3.94-2.816-6.784-2.816s-5.12 0.939-6.827 2.816-2.56 4.452-2.56 7.723c0 3.271 0.853 5.845 2.56 7.723s3.982 2.816 6.827 2.816zM64.11 31.333v-29.867h5.461v25.6h13.227v4.267h-18.688zM98.896 31.845c-2.987 0-5.604-0.654-7.851-1.963-2.219-1.308-3.968-3.115-5.248-5.419-1.252-2.332-1.877-5.020-1.877-8.064s0.626-5.717 1.877-8.021c1.28-2.332 3.029-4.153 5.248-5.461 2.247-1.308 4.864-1.963 7.851-1.963 2.958 0 5.561 0.654 7.808 1.963s3.996 3.129 5.248 5.461c1.252 2.304 1.877 4.978 1.877 8.021s-0.626 5.732-1.877 8.064c-1.252 2.304-3.001 4.11-5.248 5.419s-4.85 1.963-7.808 1.963zM98.896 26.939c2.844 0 5.106-0.939 6.784-2.816 1.707-1.877 2.56-4.452 2.56-7.723s-0.853-5.845-2.56-7.723c-1.678-1.877-3.94-2.816-6.784-2.816s-5.12 0.939-6.827 2.816c-1.707 1.877-2.56 4.452-2.56 7.723s0.853 5.845 2.56 7.723 3.982 2.816 6.827 2.816zM126.313 31.333l-10.923-29.867h5.845l8.448 24.277 8.491-24.277h5.76l-10.923 29.867h-6.699zM141.773 31.333l10.923-29.867h6.144l10.923 29.867h-5.803l-2.389-6.912h-11.648l-2.432 6.912h-5.717zM151.416 20.155h8.661l-4.352-12.416-4.309 12.416zM173.609 31.333v-29.867h5.461l14.037 21.035v-21.035h5.461v29.867h-5.461l-14.037-20.992v20.992h-5.461z"></path>
</symbol>
<symbol id="arrow-white" viewBox="0 0 32 32">
<path fill="#fff" style="fill: var(--color1, #fff)" d="M2.462 0v4.923h21.145l-23.606 23.606 3.471 3.471 23.606-23.606v21.145h4.923v-29.538h-29.538z"></path>
</symbol>
<symbol id="arrow-black" viewBox="0 0 32 32">
<path d="M31.221 13.639v3.942h-23.652l10.841 10.841-2.799 2.799-15.61-15.61 15.61-15.61 2.799 2.799-10.841 10.841h23.652z"></path>
</symbol>
<symbol id="facebook" viewBox="0 0 32 32">
<path d="M12.135 31.588v-10.64h-3.299v-4.889h3.299v-2.107c0-5.447 2.464-7.971 7.811-7.971 0.535 0 1.273 0.056 1.957 0.137 0.512 0.054 1.020 0.141 1.521 0.26v4.433c-0.29-0.027-0.58-0.043-0.871-0.048-0.326-0.008-0.651-0.012-0.977-0.012-0.943 0-1.679 0.128-2.233 0.412-0.372 0.188-0.686 0.475-0.905 0.829-0.344 0.56-0.499 1.327-0.499 2.336v1.729h5.225l-0.897 4.889h-4.328v10.993c7.923-0.957 14.061-7.703 14.061-15.883 0-8.836-7.164-16-16-16s-16 7.164-16 16c0 7.504 5.165 13.8 12.135 15.529z"></path>
</symbol>
<symbol id="telegram" viewBox="0 0 32 32">
<path d="M16 0c-8.836 0-16 7.164-16 16s7.164 16 16 16c8.836 0 16-7.164 16-16s-7.164-16-16-16zM23.859 10.961l-2.627 12.373c-0.193 0.877-0.716 1.091-1.445 0.677l-4-2.947-1.928 1.859c-0.095 0.122-0.216 0.221-0.354 0.289s-0.291 0.104-0.446 0.104h-0.007l0.284-4.072 7.413-6.696c0.32-0.284-0.072-0.445-0.497-0.161l-9.159 5.768-3.947-1.232c-0.853-0.271-0.877-0.853 0.18-1.272l15.421-5.944c0.717-0.261 1.341 0.171 1.109 1.255l0.001-0.001z"></path>
</symbol>
<symbol id="instagram" viewBox="0 0 32 32">
<path d="M16 12.092c-0.773 0-1.528 0.229-2.171 0.659s-1.144 1.040-1.439 1.754c-0.296 0.714-0.373 1.5-0.222 2.258s0.523 1.454 1.069 2.001c0.547 0.547 1.243 0.919 2.001 1.070s1.544 0.073 2.258-0.222c0.714-0.296 1.324-0.797 1.754-1.439s0.658-1.398 0.658-2.171c0-0.513-0.101-1.021-0.297-1.495s-0.484-0.905-0.847-1.268c-0.363-0.363-0.794-0.651-1.268-0.847s-0.982-0.297-1.495-0.297zM31.647 8.232c-0.007-1.217-0.231-2.423-0.662-3.561-0.316-0.833-0.806-1.59-1.436-2.22s-1.387-1.12-2.22-1.436c-1.138-0.43-2.344-0.655-3.561-0.662-2.033-0.11-2.632-0.11-7.768-0.11s-5.736 0-7.768 0.11c-1.217 0.007-2.423 0.231-3.561 0.662-0.833 0.316-1.59 0.806-2.22 1.436s-1.12 1.387-1.436 2.22c-0.43 1.138-0.655 2.344-0.662 3.561-0.11 2.033-0.11 2.632-0.11 7.769s0 5.736 0.11 7.768c0.018 1.221 0.242 2.43 0.662 3.577 0.313 0.83 0.802 1.583 1.434 2.206 0.628 0.634 1.386 1.123 2.222 1.434 1.138 0.43 2.344 0.655 3.561 0.662 2.033 0.11 2.631 0.11 7.768 0.11s5.736 0 7.768-0.11c1.217-0.007 2.423-0.231 3.561-0.662 0.836-0.311 1.594-0.8 2.222-1.434 0.632-0.623 1.121-1.376 1.434-2.206 0.429-1.144 0.653-2.355 0.662-3.577 0.11-2.033 0.11-2.632 0.11-7.768s0-5.736-0.11-7.768zM27.645 20.838c-0.050 0.973-0.257 1.93-0.615 2.836-0.306 0.756-0.761 1.442-1.337 2.019s-1.263 1.031-2.019 1.337c-0.914 0.337-1.878 0.524-2.852 0.552h-9.644c-0.974-0.028-1.938-0.214-2.852-0.552-0.782-0.29-1.487-0.753-2.064-1.355-0.571-0.565-1.012-1.248-1.292-2.001-0.338-0.914-0.519-1.878-0.536-2.852v-9.644c0.017-0.974 0.198-1.938 0.536-2.852 0.29-0.782 0.753-1.487 1.355-2.064 0.568-0.567 1.25-1.008 2.001-1.292 0.914-0.337 1.878-0.524 2.852-0.552h9.644c0.974 0.028 1.938 0.214 2.852 0.552 0.782 0.29 1.487 0.753 2.064 1.355 0.571 0.565 1.012 1.248 1.292 2.001 0.337 0.914 0.524 1.878 0.552 2.852v4.822c0 3.246 0.11 3.577 0.063 4.822v0.016zM25.124 9.114c-0.188-0.509-0.483-0.971-0.867-1.355s-0.846-0.679-1.355-0.867c-0.699-0.242-1.435-0.36-2.175-0.347h-9.455c-0.743 0.007-1.48 0.146-2.175 0.41-0.501 0.179-0.959 0.463-1.342 0.832s-0.683 0.816-0.88 1.311c-0.228 0.702-0.34 1.437-0.331 2.175v9.455c0.016 0.742 0.155 1.477 0.41 2.175 0.188 0.509 0.483 0.971 0.867 1.355s0.846 0.679 1.355 0.867c0.673 0.246 1.38 0.385 2.096 0.41h9.455c0.743-0.007 1.48-0.146 2.175-0.41 0.509-0.188 0.971-0.483 1.355-0.867s0.679-0.846 0.867-1.355c0.264-0.695 0.402-1.431 0.41-2.175v-9.455c-0-0.744-0.139-1.481-0.41-2.175v0.016zM16 22.020c-0.79 0-1.572-0.156-2.301-0.458s-1.392-0.746-1.95-1.305c-0.558-0.559-1-1.223-1.3-1.953s-0.455-1.513-0.452-2.302c0-1.191 0.353-2.356 1.016-3.346s1.603-1.762 2.704-2.217c1.101-0.455 2.312-0.573 3.48-0.34s2.241 0.808 3.082 1.652 1.413 1.917 1.644 3.086c0.231 1.169 0.109 2.38-0.349 3.479s-1.232 2.039-2.224 2.698c-0.992 0.66-2.157 1.010-3.349 1.007zM22.303 11.163c-0.348-0.037-0.671-0.201-0.905-0.462s-0.364-0.598-0.364-0.949 0.13-0.688 0.364-0.949c0.234-0.26 0.557-0.425 0.905-0.462 0.348 0.037 0.671 0.201 0.905 0.462s0.364 0.598 0.364 0.949c0 0.35-0.13 0.688-0.364 0.949s-0.557 0.425-0.905 0.462z"></path>
</symbol>
<symbol id="curve-arrow" viewBox="0 0 32 32">
<path d="M0.272 28.729c-0.147 0.158-0.137 0.405 0.021 0.552l2.576 2.388c0.158 0.146 0.405 0.137 0.551-0.021s0.137-0.405-0.021-0.552l-2.29-2.122 2.122-2.29c0.147-0.158 0.137-0.405-0.021-0.552s-0.405-0.137-0.551 0.021l-2.388 2.576zM3.757 28.705v0zM7.375 27.712v0zM10.615 25.675v0zM13.061 23.6v0zM14.835 21.056l0.337 0.197 0.005-0.009 0.005-0.009-0.347-0.179zM15.294 19.275v0zM14.565 17.054v0zM12.677 16.274v0zM11.681 17.344v0zM11.766 18.714v0zM12.659 20.275v0zM13.725 21.424v0zM16.18 23.225l-0.196 0.337 0.009 0.005 0.009 0.005 0.178-0.347zM18.295 23.973v0zM20.18 23.776v0zM22.085 22.836v0zM23.385 20.971l-0.34-0.192-0.006 0.011-0.006 0.012 0.352 0.17zM24.41 18.554v0zM24.68 16.391v0zM24.432 13.383v0zM24.004 10.059v0zM23.388 7.362v0zM0.558 28.995c0.015 0.39 0.015 0.39 0.015 0.39s0 0 0 0 0 0 0-0 0.001 0 0.001-0 0.003-0 0.004-0 0.010-0 0.017-0.001c0.015-0.001 0.037-0.002 0.066-0.003 0.057-0.003 0.139-0.006 0.242-0.012 0.205-0.010 0.492-0.027 0.817-0.050 0.648-0.046 1.464-0.119 2.103-0.23l-0.134-0.769c-0.598 0.104-1.381 0.175-2.024 0.221-0.319 0.023-0.601 0.038-0.802 0.049-0.101 0.005-0.181 0.009-0.236 0.011-0.028 0.001-0.049 0.002-0.063 0.003-0.007 0-0.013 0-0.016 0.001-0.002 0-0.003 0-0.004 0s-0.001 0-0.001 0-0 0-0 0-0 0-0 0 0 0 0.015 0.39zM3.824 29.089c1.448-0.252 2.319-0.411 3.708-1.020l-0.314-0.715c-1.298 0.57-2.092 0.716-3.528 0.966l0.134 0.769zM7.532 28.069c1.415-0.621 2.122-1.195 3.316-2.081l-0.465-0.627c-1.207 0.896-1.845 1.414-3.164 1.993l0.314 0.715zM10.848 25.988c0.997-0.74 1.63-1.163 2.503-2.126l-0.579-0.524c-0.81 0.895-1.375 1.27-2.389 2.023l0.465 0.627zM13.35 23.862c0.428-0.473 0.885-1.13 1.229-1.657 0.174-0.266 0.321-0.503 0.426-0.674 0.052-0.085 0.094-0.154 0.122-0.202 0.014-0.024 0.025-0.043 0.033-0.055 0.004-0.006 0.007-0.011 0.009-0.015 0.001-0.002 0.002-0.003 0.002-0.004s0-0.001 0.001-0.001 0-0 0-0 0-0 0-0 0-0-0.337-0.197-0.337-0.197-0.337-0.197 0 0-0 0-0 0-0 0-0 0-0 0.001-0.001 0.002-0.002 0.003-0.004 0.007-0.008 0.013c-0.007 0.012-0.017 0.029-0.031 0.052-0.027 0.046-0.067 0.112-0.118 0.195-0.101 0.166-0.245 0.396-0.413 0.654-0.34 0.521-0.77 1.135-1.154 1.56l0.579 0.524zM14.835 21.056c0.347 0.179 0.347 0.179 0.347 0.179s0-0 0-0 0-0 0-0 0-0.001 0.001-0.001 0.001-0.002 0.002-0.003 0.003-0.006 0.006-0.011 0.011-0.023 0.019-0.039c0.016-0.034 0.039-0.082 0.066-0.141 0.053-0.118 0.124-0.285 0.191-0.475 0.129-0.364 0.273-0.884 0.214-1.338l-0.774 0.1c0.033 0.259-0.052 0.629-0.176 0.978-0.059 0.165-0.12 0.311-0.167 0.415-0.023 0.052-0.043 0.093-0.056 0.12-0.007 0.014-0.012 0.024-0.015 0.031-0.002 0.003-0.003 0.006-0.004 0.007s-0.001 0.001-0.001 0.001-0 0-0 0 0-0 0-0 0-0 0-0 0-0 0.347 0.179zM15.681 19.225c-0.105-0.815-0.199-1.6-0.804-2.405l-0.624 0.469c0.467 0.622 0.548 1.21 0.654 2.036l0.774-0.1zM14.877 16.82c-0.235-0.313-0.525-0.611-0.908-0.797-0.392-0.19-0.846-0.245-1.375-0.13l0.166 0.763c0.378-0.082 0.651-0.035 0.869 0.070 0.227 0.11 0.427 0.301 0.624 0.563l0.624-0.469zM12.594 15.893c-0.734 0.159-1.152 0.692-1.295 1.371l0.764 0.16c0.092-0.437 0.319-0.687 0.697-0.769l-0.166-0.763zM11.299 17.264c-0.119 0.568-0.104 1.026 0.101 1.585l0.733-0.269c-0.149-0.406-0.162-0.713-0.069-1.156l-0.764-0.16zM11.399 18.849c0.242 0.66 0.608 1.128 0.93 1.636l0.659-0.419c-0.37-0.582-0.653-0.931-0.856-1.486l-0.733 0.269zM12.33 20.485c0.178 0.279 0.364 0.485 0.553 0.671 0.206 0.203 0.354 0.327 0.562 0.54l0.559-0.545c-0.198-0.204-0.427-0.408-0.574-0.552-0.164-0.161-0.307-0.321-0.442-0.533l-0.659 0.419zM13.445 21.696c0.448 0.46 1.090 0.929 1.603 1.274 0.26 0.175 0.493 0.322 0.661 0.426 0.084 0.052 0.152 0.093 0.199 0.121 0.024 0.014 0.042 0.025 0.055 0.033 0.006 0.004 0.011 0.007 0.015 0.009 0.002 0.001 0.003 0.002 0.004 0.002s0.001 0 0.001 0.001 0 0 0 0 0 0 0 0 0 0 0.196-0.337 0.196-0.337 0.196-0.337 0 0 0 0-0-0-0-0-0-0-0.001-0-0.002-0.001-0.003-0.002-0.007-0.004-0.013-0.008c-0.011-0.007-0.029-0.017-0.051-0.030-0.044-0.027-0.109-0.066-0.19-0.116-0.161-0.1-0.385-0.241-0.635-0.409-0.505-0.34-1.091-0.772-1.48-1.172l-0.559 0.545zM16.18 23.225c-0.178 0.347-0.178 0.347-0.178 0.347s0 0 0 0 0 0 0 0 0.001 0 0.001 0 0.002 0.001 0.003 0.002 0.007 0.003 0.012 0.006 0.025 0.012 0.043 0.021c0.037 0.018 0.091 0.044 0.157 0.076 0.133 0.063 0.32 0.148 0.537 0.237 0.424 0.174 0.991 0.378 1.486 0.445l0.105-0.773c-0.392-0.053-0.883-0.224-1.294-0.393-0.202-0.083-0.377-0.162-0.501-0.221-0.062-0.029-0.111-0.053-0.145-0.070-0.017-0.008-0.029-0.015-0.038-0.019-0.004-0.002-0.007-0.004-0.009-0.005s-0.002-0.001-0.002-0.001-0-0-0-0-0 0-0 0 0 0 0 0 0 0-0.178 0.347zM18.242 24.36c0.811 0.11 1.311-0.004 2.043-0.208l-0.21-0.752c-0.697 0.194-1.075 0.275-1.728 0.186l-0.105 0.773zM20.285 24.152c0.826-0.23 1.358-0.431 2.052-1.018l-0.504-0.596c-0.575 0.486-0.988 0.648-1.757 0.862l0.21 0.752zM22.337 23.134c0.39-0.33 0.742-0.842 0.986-1.242 0.125-0.205 0.228-0.392 0.3-0.527 0.036-0.068 0.064-0.123 0.084-0.162 0.010-0.019 0.017-0.035 0.023-0.045 0.003-0.005 0.005-0.009 0.006-0.012 0.001-0.001 0.001-0.003 0.002-0.003s0-0.001 0-0.001 0-0 0-0 0-0 0-0 0-0-0.351-0.17-0.351-0.17-0.351-0.17 0-0 0-0 0-0 0 0-0 0-0 0-0 0.001-0.001 0.002-0.003 0.005-0.005 0.009-0.011 0.022-0.019 0.039c-0.017 0.034-0.043 0.085-0.076 0.147-0.066 0.125-0.162 0.297-0.277 0.487-0.237 0.389-0.535 0.809-0.823 1.053l0.504 0.596zM23.385 20.971c0.34 0.192 0.34 0.192 0.34 0.192s0-0 0-0 0-0 0-0 0-0.001 0.001-0.001 0.001-0.002 0.002-0.003 0.004-0.007 0.007-0.013 0.015-0.027 0.027-0.048c0.023-0.042 0.056-0.102 0.096-0.177 0.080-0.15 0.188-0.362 0.305-0.606 0.229-0.482 0.501-1.118 0.628-1.672l-0.761-0.174c-0.107 0.467-0.348 1.040-0.572 1.511-0.11 0.232-0.214 0.433-0.29 0.576-0.038 0.071-0.069 0.128-0.090 0.167-0.011 0.019-0.019 0.034-0.024 0.044-0.003 0.005-0.005 0.009-0.006 0.011-0.001 0.001-0.001 0.002-0.001 0.003s-0 0-0 0-0 0-0 0v-0c0 0 0-0 0.34 0.192zM24.79 18.641c0.201-0.876 0.247-1.368 0.28-2.236l-0.78-0.030c-0.032 0.833-0.073 1.274-0.26 2.091l0.761 0.174zM25.070 16.406c0.023-0.619-0.023-1.121-0.082-1.6-0.060-0.483-0.13-0.918-0.166-1.449l-0.779 0.052c0.037 0.561 0.114 1.040 0.17 1.493 0.057 0.458 0.098 0.913 0.077 1.474l0.78 0.030zM24.822 13.357c-0.089-1.325-0.197-2.071-0.434-3.368l-0.768 0.14c0.233 1.276 0.337 1.991 0.423 3.28l0.779-0.052zM24.387 9.989c-0.195-1.064-0.303-1.685-0.626-2.742l-0.746 0.228c0.308 1.009 0.41 1.591 0.605 2.654l0.768-0.14zM23.761 7.247c-0.399-1.304-0.586-1.727-1.309-3.222l-0.703 0.34c0.714 1.476 0.883 1.859 1.266 3.111l0.746-0.228zM22.452 4.025c-0.36-0.743-0.64-1.323-0.921-1.902s-0.561-1.159-0.921-1.902l-0.703 0.34c0.36 0.743 0.64 1.323 0.921 1.902s0.561 1.159 0.921 1.902l0.703-0.34z"></path>
</symbol>
<symbol id="close" viewBox="0 0 32 32">
<path d="M32 3.223l-3.223-3.223-12.777 12.777-12.777-12.777-3.223 3.223 12.777 12.777-12.777 12.777 3.223 3.223 12.777-12.777 12.777 12.777 3.223-3.223-12.777-12.777 12.777-12.777z"></path>
</symbol>
<symbol id="img-bar-big" viewBox="0 0 34 32">
<path stroke-linejoin="miter" stroke-linecap="butt" stroke-miterlimit="4" stroke-width="0.7442" d="M0.535 0.628l6.418 26.143c0.755 3.077 3.788 5.023 6.9 4.428l20.209-3.863"></path>
</symbol>
<symbol id="img-bar-small" viewBox="0 0 47 32">
<path stroke-linejoin="miter" stroke-linecap="butt" stroke-miterlimit="4" stroke-width="1.4545" d="M1.812 1.516l6.836 21.014c1.808 5.558 7.458 8.912 13.202 7.839l23.648-4.418"></path>
</symbol>
<symbol id="curve-arrow-big" viewBox="0 0 26 32">
<path d="M0.052 30.492c-0.066 0.071-0.063 0.182 0.008 0.248l1.156 1.081c0.071 0.066 0.182 0.063 0.248-0.008s0.063-0.182-0.008-0.248l-1.027-0.961 0.961-1.027c0.066-0.071 0.063-0.182-0.008-0.248s-0.182-0.063-0.248 0.008l-1.081 1.156zM3.603 30.318v0zM7.473 29.275v0zM10.932 27.116v0zM13.542 24.913v0zM15.429 22.206l0.152 0.088 0.002-0.004 0.002-0.004-0.156-0.080zM15.912 20.308v0zM15.121 17.934v0zM13.096 17.093v0zM12.034 18.23v0zM12.132 19.692v0zM13.096 21.363v0zM14.242 22.593v0zM16.879 24.527l-0.089 0.152 0.004 0.002 0.004 0.002 0.080-0.156zM19.147 25.336v0zM21.164 25.134v0zM23.199 24.139v0zM24.583 22.155l-0.153-0.087-0.003 0.005-0.003 0.005 0.158 0.076zM25.669 19.58v0zM25.948 17.273v0zM25.669 14.062v0zM25.194 10.513v0zM24.523 7.63v0zM0.18 30.612c0.006 0.176 0.006 0.176 0.006 0.176s0 0 0 0 0 0 0 0 0.001-0 0.001-0 0.003 0 0.005-0 0.010-0 0.018-0.001c0.016-0.001 0.039-0.002 0.069-0.003 0.060-0.002 0.148-0.006 0.257-0.011 0.218-0.010 0.523-0.026 0.87-0.049 0.692-0.046 1.555-0.12 2.226-0.233l-0.059-0.347c-0.652 0.11-1.501 0.184-2.19 0.229-0.344 0.023-0.647 0.038-0.863 0.049-0.108 0.005-0.195 0.009-0.255 0.011-0.030 0.001-0.053 0.002-0.068 0.003-0.008 0-0.014 0.001-0.018 0.001-0.002 0-0.003 0-0.004 0s-0.001 0-0.001 0-0 0-0 0-0 0-0 0 0 0 0.006 0.176zM3.633 30.491c1.546-0.262 2.454-0.423 3.91-1.055l-0.14-0.322c-1.415 0.614-2.288 0.77-3.828 1.031l0.059 0.347zM7.543 29.436c1.483-0.643 2.216-1.235 3.494-2.179l-0.209-0.283c-1.284 0.948-1.986 1.515-3.425 2.139l0.14 0.322zM11.037 27.257c1.069-0.789 1.725-1.223 2.635-2.226l-0.26-0.236c-0.882 0.972-1.507 1.385-2.583 2.18l0.209 0.283zM13.672 25.031c0.443-0.488 0.921-1.174 1.286-1.733 0.183-0.28 0.339-0.531 0.449-0.711 0.055-0.090 0.099-0.163 0.129-0.213 0.015-0.025 0.027-0.045 0.034-0.058 0.004-0.007 0.007-0.012 0.009-0.015 0.001-0.002 0.002-0.003 0.002-0.004s0-0.001 0.001-0.001 0-0 0-0 0 0 0 0 0-0-0.152-0.089-0.152-0.089-0.152-0.089 0 0-0 0-0 0-0 0-0 0.001-0.001 0.001-0.001 0.002-0.002 0.004-0.005 0.008-0.009 0.015c-0.008 0.013-0.019 0.032-0.033 0.056-0.029 0.049-0.072 0.121-0.127 0.21-0.109 0.178-0.262 0.425-0.443 0.702-0.363 0.556-0.828 1.223-1.251 1.689l0.26 0.236zM15.429 22.206c0.156 0.080 0.156 0.080 0.156 0.080s0-0 0-0 0-0 0-0 0-0.001 0-0.001 0.001-0.002 0.001-0.003 0.003-0.006 0.005-0.011 0.011-0.022 0.019-0.039c0.016-0.034 0.040-0.083 0.067-0.144 0.055-0.122 0.127-0.292 0.195-0.488 0.135-0.383 0.269-0.892 0.212-1.317l-0.349 0.047c0.045 0.337-0.063 0.777-0.195 1.153-0.065 0.184-0.133 0.345-0.184 0.46-0.026 0.058-0.048 0.103-0.063 0.134-0.008 0.016-0.013 0.028-0.017 0.036-0.002 0.004-0.003 0.007-0.004 0.009-0 0.001-0.001 0.002-0.001 0.002s-0 0-0 0-0 0-0 0h0c0-0 0-0 0.156 0.080zM16.086 20.284c-0.117-0.874-0.217-1.651-0.825-2.456l-0.281 0.212c0.546 0.723 0.64 1.412 0.757 2.291l0.349-0.047zM15.261 17.828c-0.242-0.32-0.525-0.605-0.887-0.781-0.366-0.178-0.796-0.236-1.315-0.126l0.073 0.344c0.451-0.096 0.8-0.042 1.088 0.098 0.292 0.142 0.536 0.38 0.76 0.677l0.281-0.212zM13.059 16.921c-0.331 0.070-0.599 0.223-0.801 0.447-0.201 0.222-0.329 0.506-0.396 0.827l0.344 0.071c0.057-0.274 0.162-0.496 0.312-0.662 0.149-0.165 0.35-0.283 0.614-0.339l-0.073-0.344zM11.862 18.194c-0.117 0.567-0.1 1.010 0.105 1.559l0.33-0.122c-0.179-0.481-0.195-0.856-0.090-1.366l-0.344-0.071zM11.967 19.753c0.25 0.673 0.618 1.137 0.981 1.704l0.296-0.19c-0.384-0.6-0.715-1.011-0.947-1.637l-0.33 0.122zM12.948 21.457c0.178 0.278 0.365 0.485 0.56 0.676 0.203 0.199 0.387 0.357 0.608 0.583l0.251-0.246c-0.216-0.221-0.437-0.415-0.613-0.588-0.184-0.18-0.351-0.366-0.51-0.614l-0.296 0.19zM14.116 22.716c0.464 0.474 1.135 0.966 1.684 1.335 0.276 0.186 0.523 0.343 0.701 0.453 0.089 0.055 0.161 0.099 0.211 0.129 0.025 0.015 0.044 0.027 0.058 0.034 0.007 0.004 0.012 0.007 0.015 0.009 0.002 0.001 0.003 0.002 0.004 0.002s0.001 0.001 0.001 0.001 0 0 0 0 0 0 0 0 0 0 0.089-0.152 0.089-0.152 0.089-0.152-0 0-0 0-0 0-0-0-0-0-0.001-0-0.002-0.001-0.004-0.002-0.008-0.005-0.014-0.008c-0.013-0.007-0.031-0.019-0.056-0.033-0.049-0.029-0.119-0.072-0.207-0.126-0.175-0.108-0.419-0.263-0.69-0.445-0.545-0.367-1.192-0.843-1.629-1.29l-0.251 0.246zM16.879 24.527c-0.080 0.156-0.080 0.156-0.080 0.156s0 0 0 0 0 0 0 0 0 0 0.001 0 0.002 0.001 0.003 0.002 0.007 0.004 0.012 0.006 0.025 0.013 0.045 0.022c0.039 0.019 0.095 0.046 0.165 0.080 0.14 0.066 0.337 0.156 0.564 0.25 0.451 0.187 1.035 0.396 1.533 0.466l0.049-0.348c-0.452-0.063-1.002-0.258-1.447-0.442-0.221-0.091-0.412-0.179-0.549-0.243-0.068-0.032-0.122-0.059-0.159-0.077-0.018-0.009-0.033-0.016-0.042-0.021-0.005-0.002-0.008-0.004-0.011-0.005-0.001-0.001-0.002-0.001-0.003-0.001s-0-0-0.001-0-0-0-0-0 0 0 0 0 0 0-0.080 0.156zM19.122 25.51c0.82 0.114 1.317 0.005 2.089-0.206l-0.093-0.339c-0.756 0.207-1.198 0.302-1.947 0.197l-0.049 0.348zM21.211 25.304c0.866-0.237 1.398-0.437 2.101-1.030l-0.226-0.269c-0.649 0.547-1.127 0.729-1.968 0.959l0.093 0.339zM23.312 24.274c0.385-0.324 0.743-0.841 1-1.264 0.13-0.214 0.237-0.408 0.312-0.549 0.037-0.070 0.067-0.128 0.087-0.168 0.010-0.020 0.018-0.036 0.023-0.046 0.003-0.005 0.005-0.009 0.006-0.012 0.001-0.001 0.001-0.003 0.002-0.003s0-0.001 0.001-0.001 0-0 0-0 0 0 0 0 0-0-0.159-0.076-0.158-0.076-0.158-0.076 0 0 0 0 0 0 0 0-0 0-0 0.001-0.001 0.001-0.001 0.003-0.003 0.006-0.005 0.011c-0.005 0.010-0.012 0.024-0.022 0.043-0.019 0.038-0.047 0.093-0.083 0.161-0.072 0.136-0.176 0.324-0.301 0.53-0.254 0.418-0.588 0.893-0.926 1.177l0.226 0.269zM24.583 22.155c0.153 0.087 0.153 0.087 0.153 0.087s0 0 0 0 0-0 0-0 0-0.001 0.001-0.001 0.001-0.002 0.002-0.004 0.004-0.007 0.007-0.013c0.006-0.012 0.016-0.028 0.028-0.050 0.024-0.043 0.058-0.107 0.1-0.186 0.083-0.158 0.197-0.38 0.319-0.636 0.242-0.51 0.52-1.168 0.648-1.732l-0.343-0.077c-0.119 0.525-0.383 1.154-0.622 1.659-0.119 0.251-0.23 0.468-0.312 0.623-0.041 0.077-0.074 0.139-0.097 0.181-0.012 0.021-0.021 0.037-0.027 0.048-0.003 0.005-0.005 0.009-0.007 0.012-0.001 0.001-0.001 0.002-0.002 0.003s-0 0.001-0.001 0.001 0 0 0 0 0 0 0 0 0 0 0.153 0.087zM25.84 19.619c0.207-0.916 0.252-1.425 0.283-2.34l-0.351-0.012c-0.030 0.899-0.074 1.386-0.275 2.275l0.343 0.077zM26.124 17.279c0.022-0.642-0.029-1.164-0.094-1.669-0.065-0.507-0.144-0.985-0.186-1.561l-0.351 0.025c0.042 0.589 0.124 1.088 0.188 1.581 0.064 0.495 0.112 0.996 0.091 1.612l0.351 0.012zM25.844 14.049c-0.1-1.403-0.218-2.19-0.477-3.569l-0.346 0.065c0.257 1.37 0.373 2.143 0.472 3.529l0.351-0.025zM25.367 10.48c-0.213-1.136-0.331-1.787-0.677-2.902l-0.336 0.104c0.34 1.093 0.454 1.727 0.667 2.862l0.346-0.065zM24.69 7.578c-0.428-1.377-0.624-1.817-1.403-3.41l-0.316 0.154c0.775 1.585 0.963 2.007 1.383 3.36l0.336-0.104zM23.287 4.168c-0.388-0.795-0.692-1.415-0.995-2.035s-0.606-1.24-0.994-2.035l-0.316 0.154c0.388 0.795 0.692 1.415 0.995 2.035s0.606 1.24 0.994 2.035l0.316-0.154z"></path>
</symbol>
</defs>
</svg>
