<svg width="46" height="34" viewBox="0 0 46 34" fill="none" xmlns="http://www.w3.org/2000/svg">
<g clip-path="url(#clip0_217_1253)">
<path fill-rule="evenodd" clip-rule="evenodd" d="M13.0097 16.1858C13.6231 15.9137 14.0229 15.3163 14.0371 14.6515C14.0512 13.9867 13.677 13.3732 13.0759 13.0759L7.87018 10.5006C7.38651 10.2613 6.81787 10.2582 6.33164 10.4922L0.978818 13.0675C0.368536 13.3612 -0.0136032 13.9794 0.000370646 14.6509C0.0143444 15.3224 0.421865 15.9245 1.04413 16.193L6.39695 18.5029C6.8461 18.6968 7.35714 18.6942 7.8043 18.4958L13.0097 16.1858ZM1.73967 14.6153L7.09221 16.9253L12.2979 14.6153L7.09221 12.0401L1.73967 14.6153Z" fill="url(#paint0_linear_217_1253)"/>
<path fill-rule="evenodd" clip-rule="evenodd" d="M10.8893 5.33521C9.72463 5.96849 9.70795 7.61345 10.8596 8.26956L21.0183 14.0574L9.71087 20.2219C7.97853 21.1664 7.82765 23.5657 9.42842 24.7139L20.9083 32.9488C22.0952 33.8003 23.7009 33.8089 24.8972 32.9707L36.6551 24.7318C38.2886 23.587 38.1369 21.1489 36.3735 20.2099L24.8076 14.0504L34.9273 8.27186C36.0799 7.61376 36.0595 5.96591 34.8911 5.33564L25.4511 0.510648C24.9682 0.250153 24.3626 0.425025 24.0985 0.901237C23.8344 1.37745 24.0117 1.97467 24.4946 2.23516L33.4908 6.82073L22.9079 12.8638L12.2933 6.81637L20.9836 2.21107C21.4656 1.94898 21.641 1.35118 21.3751 0.875843C21.1094 0.400503 20.5033 0.227622 20.0212 0.489706L10.8893 5.33521ZM10.6752 21.9422C10.2193 22.1908 10.1796 22.8222 10.6008 23.1243L22.0808 31.3592C22.5753 31.7141 23.2444 31.7178 23.7428 31.3684L35.5005 23.1294C35.9304 22.8282 35.8906 22.1866 35.4265 21.9395L23.1138 15.3823C22.9859 15.3141 22.8316 15.3149 22.7042 15.3843L10.6752 21.9422Z" fill="url(#paint1_linear_217_1253)"/>
<path fill-rule="evenodd" clip-rule="evenodd" d="M45.9991 14.674C45.9849 15.3389 45.5851 15.9362 44.9718 16.2084L39.7662 18.5183C39.319 18.7168 38.808 18.7193 38.3588 18.5254L33.0061 16.2155C32.3838 15.947 31.9763 15.345 31.9623 14.6734C31.9484 14.002 32.3304 13.3837 32.9408 13.09L38.2935 10.5147C38.7799 10.2807 39.3485 10.2839 39.8323 10.5231L45.0378 13.0984C45.6391 13.3958 46.0132 14.0092 45.9991 14.674ZM44.2599 14.6379L39.0543 12.0626L33.7015 14.6379L39.0543 16.9478L44.2599 14.6379Z" fill="url(#paint2_linear_217_1253)"/>
</g>
<defs>
<linearGradient id="paint0_linear_217_1253" x1="1.84472e-10" y1="0.344832" x2="0.107981" y2="0.344832" gradientUnits="userSpaceOnUse">
<stop stop-color="#912BE2"/>
<stop offset="0.307292" stop-color="#B11DD0"/>
<stop offset="0.609375" stop-color="#D92DE4"/>
<stop offset="1" stop-color="#B01DD0"/>
</linearGradient>
<linearGradient id="paint1_linear_217_1253" x1="-0.000105656" y1="0.344854" x2="0.107876" y2="0.344854" gradientUnits="userSpaceOnUse">
<stop stop-color="#912BE2"/>
<stop offset="0.307292" stop-color="#B11DD0"/>
<stop offset="0.609375" stop-color="#D92DE4"/>
<stop offset="1" stop-color="#B01DD0"/>
</linearGradient>
<linearGradient id="paint2_linear_217_1253" x1="-0.000482993" y1="0.344835" x2="0.107498" y2="0.344835" gradientUnits="userSpaceOnUse">
<stop stop-color="#912BE2"/>
<stop offset="0.307292" stop-color="#B11DD0"/>
<stop offset="0.609375" stop-color="#D92DE4"/>
<stop offset="1" stop-color="#B01DD0"/>
</linearGradient>
<clipPath id="clip0_217_1253">
<rect width="46" height="33.3103" fill="white" transform="translate(0 0.344849)"/>
</clipPath>
</defs>
</svg>
